<?xml version="1.0" encoding="UTF-8" standalone="no"?>
<!DOCTYPE svg PUBLIC "-//W3C//DTD SVG 1.1//EN" "http://www.w3.org/Graphics/SVG/1.1/DTD/svg11.dtd">
<svg width="100%" height="100%" viewBox="0 0 170 60" version="1.1" xmlns="http://www.w3.org/2000/svg" xmlnsXlink="http://www.w3.org/1999/xlink" xml:space="preserve" xmlnsSerif="http://www.serif.com/" style="fill-rule:evenodd;clip-rule:evenodd;stroke-linejoin:round;stroke-miterlimit:2;">
    <g transform="matrix(1.08659,0,0,1.08659,-14.5719,14.4534)">
        <g transform="matrix(1,0,0,1,-4.60153,0)">
            <path d="M79.654,9.73C80.663,9.73 81.629,9.601 82.552,9.345C83.475,9.088 84.25,8.502 84.878,7.589C85.012,7.36 85.078,7.161 85.078,6.989C85.078,6.609 84.726,6.418 84.022,6.418C83.375,6.418 82.861,6.723 82.48,7.332C81.871,8.036 81.148,8.388 80.311,8.388C79.283,8.388 78.46,7.95 77.841,7.075C77.222,6.199 76.761,5.143 76.456,3.906C76.152,2.669 75.99,1.46 75.971,0.28C75.971,-2.194 76.59,-4.621 77.827,-7C78.664,-8.599 79.587,-9.398 80.596,-9.398C81.205,-9.398 81.767,-9.184 82.28,-8.756C82.794,-8.328 83.213,-7.799 83.537,-7.171C83.784,-6.619 83.965,-6.034 84.079,-5.415C84.193,-4.797 84.545,-4.488 85.135,-4.488C85.821,-4.526 86.163,-4.764 86.163,-5.201C86.03,-6.857 85.454,-8.175 84.436,-9.155C83.418,-10.136 82.128,-10.626 80.568,-10.626C79.216,-10.588 78.017,-10.35 76.97,-9.912C75.924,-9.474 75.019,-8.732 74.258,-7.685C73.345,-6.448 72.716,-5.14 72.374,-3.76C72.031,-2.38 71.86,-0.805 71.86,0.965C71.86,1.631 72.003,2.583 72.288,3.82C72.992,6.751 74.648,8.617 77.256,9.416C78.055,9.625 78.855,9.73 79.654,9.73Z" style="fill:rgb(248,248,248);"/>
        </g>
        <g transform="matrix(1,0,0,1,-4.60153,0)">
            <path d="M94.186,10.815C94.89,10.815 95.608,10.701 96.341,10.472C97.074,10.244 97.678,9.844 98.154,9.273C98.287,9.102 98.354,8.95 98.354,8.816C98.354,8.626 98.23,8.479 97.983,8.374C97.735,8.269 97.478,8.217 97.212,8.217C96.869,8.217 96.555,8.36 96.27,8.645C95.794,9.216 95.242,9.502 94.614,9.502C92.52,9.463 91.369,8.388 91.159,6.275C91.159,6.028 91.255,5.904 91.445,5.904C91.616,5.904 91.864,5.933 92.187,5.99C92.587,6.085 93.091,6.133 93.7,6.133C94.728,6.133 95.713,5.952 96.655,5.59C97.597,5.229 98.363,4.639 98.953,3.82C99.315,3.306 99.496,2.821 99.496,2.364C99.496,1.641 99.048,1.032 98.154,0.537C97.412,0.137 96.45,-0.062 95.27,-0.062C93.805,-0.062 92.544,0.261 91.488,0.908C90.431,1.555 89.665,2.488 89.189,3.706L89.132,3.849C88.98,4.134 88.799,4.334 88.59,4.448C88.457,4.486 88.39,4.572 88.39,4.705C88.39,4.762 88.419,4.819 88.476,4.877C88.628,5.048 88.704,5.229 88.704,5.419L88.704,5.933C88.704,7.436 89.256,8.626 90.36,9.502C91.464,10.377 92.739,10.815 94.186,10.815ZM92.787,4.962C92.577,4.962 92.377,4.938 92.187,4.891C91.997,4.843 91.797,4.815 91.588,4.805C91.378,4.796 91.274,4.686 91.274,4.477C91.464,3.373 92.021,2.545 92.944,1.993C93.867,1.441 94.852,1.165 95.899,1.165C96.393,1.184 96.774,1.27 97.041,1.422C97.307,1.574 97.44,1.841 97.44,2.221C97.44,2.926 97.012,3.554 96.155,4.106C95.299,4.658 94.357,4.934 93.329,4.934L92.787,4.962Z" style="fill:rgb(248,248,248);"/>
        </g>
        <g transform="matrix(1,0,0,1,-4.60153,0)">
            <path d="M109.003,10.872C109.688,10.872 110.402,10.767 111.144,10.558C111.886,10.349 112.543,10.044 113.114,9.644C113.361,9.492 113.485,9.33 113.485,9.159C113.428,8.721 113.047,8.502 112.343,8.502C112.077,8.502 111.81,8.569 111.544,8.702C110.687,9.14 109.754,9.425 108.746,9.559C108.593,9.559 108.451,9.511 108.318,9.416C106.814,8.331 106.062,6.961 106.062,5.305C106.062,4.962 106.1,4.61 106.176,4.248C106.29,3.582 106.452,2.935 106.662,2.307C106.871,1.679 107.204,1.108 107.661,0.594C108.422,-0.205 109.241,-0.605 110.116,-0.605C110.896,-0.605 111.658,-0.253 112.4,0.451C112.667,0.699 112.962,0.823 113.285,0.823C113.59,0.804 113.818,0.761 113.97,0.694C114.123,0.627 114.199,0.499 114.199,0.309C114.199,-0.167 113.78,-0.624 112.942,-1.062C112.295,-1.404 111.705,-1.623 111.172,-1.718C110.735,-1.794 110.268,-1.833 109.774,-1.833L109.488,-1.833C107.813,-1.833 106.367,-1.295 105.149,-0.22C103.93,0.856 103.207,2.25 102.979,3.963L102.922,4.705C102.922,6.437 103.516,7.898 104.706,9.088C105.896,10.277 107.328,10.872 109.003,10.872Z" style="fill:rgb(248,248,248);"/>
        </g>
        <g transform="matrix(1,0,0,1,-4.60153,0)">
            <path d="M120.137,11.072C120.689,11.072 121.079,10.972 121.307,10.772C121.536,10.572 121.66,10.206 121.679,9.673L121.878,4.22C121.859,2.298 121.831,1.099 121.793,0.623C121.774,-0.196 121.498,-0.738 120.965,-1.005C120.527,-1.233 120.07,-1.347 119.594,-1.347C119.404,-1.347 119.223,-1.328 119.052,-1.29C118.576,-1.214 118.257,-1.095 118.096,-0.933C117.934,-0.771 117.853,-0.462 117.853,-0.005C117.853,3.839 117.891,6.808 117.967,8.902C117.967,10.349 118.69,11.072 120.137,11.072ZM120.28,-2.289C120.679,-2.289 120.984,-2.437 121.193,-2.732C121.403,-3.027 121.574,-3.355 121.707,-3.717L121.793,-3.888C121.888,-4.021 121.936,-4.155 121.936,-4.288C121.936,-4.459 121.802,-4.63 121.536,-4.802C121.269,-4.973 121.041,-5.059 120.851,-5.059C120.717,-5.059 120.594,-5.011 120.48,-4.916C120.251,-4.745 120.042,-4.659 119.851,-4.659C119.68,-4.659 119.514,-4.711 119.352,-4.816C119.19,-4.921 119.004,-4.973 118.795,-4.973C118.605,-4.935 118.453,-4.887 118.338,-4.83C118.224,-4.773 118.167,-4.649 118.167,-4.459C118.167,-3.983 118.4,-3.503 118.866,-3.017C119.333,-2.532 119.804,-2.289 120.28,-2.289Z" style="fill:rgb(248,248,248);"/>
        </g>
        <g transform="matrix(1,0,0,1,-4.60153,0)">
            <path d="M132.499,11.3C132.994,11.3 133.241,11.062 133.241,10.586C133.241,10.32 133.146,10.054 132.956,9.787C132.937,9.749 132.913,9.72 132.884,9.701C132.856,9.682 132.841,9.644 132.841,9.587C132.175,8.464 131.633,7.284 131.214,6.047C131.062,5.666 130.986,5.305 130.986,4.962C130.986,4.715 131.005,4.515 131.043,4.363C131.081,4.21 131.128,4.053 131.186,3.892C131.243,3.73 131.309,3.525 131.385,3.278C131.823,1.565 132.218,-0.172 132.57,-1.932C132.922,-3.693 133.127,-5.525 133.184,-7.428C133.184,-8.399 133.07,-9.341 132.841,-10.255C132.689,-10.749 132.385,-11.125 131.928,-11.382C131.471,-11.639 131.033,-11.768 130.615,-11.768C130.348,-11.768 130.12,-11.711 129.929,-11.596C129.149,-11.235 128.521,-10.683 128.045,-9.941C127.227,-8.437 126.817,-6.838 126.817,-5.144L126.76,-3.374C126.76,-0.196 127.217,2.745 128.131,5.448C128.188,5.6 128.216,5.743 128.216,5.876C128.216,6.028 128.188,6.18 128.131,6.333C127.674,7.436 127.17,8.54 126.618,9.644C126.503,9.835 126.446,9.996 126.446,10.13C126.446,10.358 126.584,10.544 126.86,10.686C127.136,10.829 127.388,10.9 127.617,10.9C128.017,10.9 128.378,10.648 128.702,10.144C129.025,9.64 129.311,9.102 129.558,8.531L129.872,9.016C130.234,9.606 130.619,10.134 131.029,10.601C131.438,11.067 131.928,11.3 132.499,11.3ZM130.243,-1.147C130.205,-2.118 130.186,-3.079 130.186,-4.031C130.186,-6.315 130.443,-8.247 130.957,-9.826C131.109,-9.027 131.186,-8.228 131.186,-7.428C131.186,-6.439 131.1,-5.468 130.929,-4.516C130.719,-3.393 130.491,-2.27 130.243,-1.147Z" style="fill:rgb(248,248,248);"/>
        </g>
        <g transform="matrix(1,0,0,1,-4.60153,0)">
            <path d="M139.408,11.072C139.96,11.072 140.35,10.972 140.578,10.772C140.807,10.572 140.93,10.206 140.949,9.673L141.149,4.22C141.13,2.298 141.102,1.099 141.064,0.623C141.045,-0.196 140.769,-0.738 140.236,-1.005C139.798,-1.233 139.341,-1.347 138.865,-1.347C138.675,-1.347 138.494,-1.328 138.323,-1.29C137.847,-1.214 137.528,-1.095 137.366,-0.933C137.205,-0.771 137.124,-0.462 137.124,-0.005C137.124,3.839 137.162,6.808 137.238,8.902C137.238,10.349 137.961,11.072 139.408,11.072ZM139.55,-2.289C139.95,-2.289 140.255,-2.437 140.464,-2.732C140.673,-3.027 140.845,-3.355 140.978,-3.717L141.064,-3.888C141.159,-4.021 141.206,-4.155 141.206,-4.288C141.206,-4.459 141.073,-4.63 140.807,-4.802C140.54,-4.973 140.312,-5.059 140.121,-5.059C139.988,-5.059 139.865,-5.011 139.75,-4.916C139.522,-4.745 139.313,-4.659 139.122,-4.659C138.951,-4.659 138.784,-4.711 138.623,-4.816C138.461,-4.921 138.275,-4.973 138.066,-4.973C137.876,-4.935 137.723,-4.887 137.609,-4.83C137.495,-4.773 137.438,-4.649 137.438,-4.459C137.438,-3.983 137.671,-3.503 138.137,-3.017C138.604,-2.532 139.075,-2.289 139.55,-2.289Z" style="fill:rgb(248,248,248);"/>
        </g>
        <g transform="matrix(1,0,0,1,-4.60153,0)">
            <path d="M157.508,10.929C158.06,10.929 158.545,10.72 158.964,10.301C159.002,10.263 159.031,10.206 159.05,10.13C159.126,9.806 159.183,8.626 159.221,6.59C159.221,4.077 159.097,1.584 158.85,-0.89C158.793,-1.728 158.355,-2.185 157.537,-2.261C157.004,-2.318 156.48,-2.346 155.966,-2.346C155.586,-2.346 155.376,-2.251 155.338,-2.061C155.281,-1.718 155.081,-1.547 154.739,-1.547L153.939,-1.547C150.475,-1.547 147.811,-0.062 145.946,2.907C145.489,3.649 145.26,4.401 145.26,5.162C145.26,5.885 145.508,6.609 146.003,7.332C146.498,8.055 147.221,8.626 148.172,9.045C149.124,9.463 150.095,9.673 151.084,9.673C153.159,9.673 154.606,8.759 155.424,6.932L155.852,9.701C156.023,10.52 156.575,10.929 157.508,10.929ZM151.884,8.103C151.579,8.103 151.208,7.912 150.77,7.532C149.762,6.675 149.257,5.743 149.257,4.734C149.257,3.992 149.329,3.378 149.471,2.892C149.614,2.407 149.876,1.965 150.257,1.565C151.418,0.328 152.864,-0.3 154.596,-0.319C154.958,-0.319 155.138,-0.177 155.138,0.109L155.138,0.137C154.948,1.698 154.625,3.192 154.168,4.62C153.901,5.495 153.568,6.295 153.169,7.018C152.769,7.741 152.341,8.103 151.884,8.103Z" style="fill:rgb(248,248,248);"/>
        </g>
        <g transform="matrix(1,0,0,1,-4.60153,0)">
            <path d="M76.856,38.393C77.541,38.393 78.341,38.127 79.254,37.594C81.69,36.11 83.299,35.091 84.079,34.539C84.288,34.387 84.393,34.225 84.393,34.054C84.336,33.654 84.003,33.454 83.394,33.454C83.051,33.454 82.718,33.559 82.395,33.769C81.043,34.511 79.74,35.301 78.483,36.138C78.122,36.405 77.874,36.538 77.741,36.538C77.551,36.538 77.437,36.262 77.399,35.71C77.399,35.672 77.389,35.634 77.37,35.596C77.351,35.558 77.199,34.092 76.913,31.199C76.913,31.142 76.927,31.09 76.956,31.042C76.985,30.994 77.418,30.885 78.255,30.714C79.568,30.352 80.682,30.171 81.595,30.171C81.767,30.171 81.924,30.181 82.066,30.2C82.209,30.219 82.352,30.247 82.495,30.285C82.637,30.324 82.794,30.343 82.966,30.343C83.194,30.343 83.375,30.309 83.508,30.243C83.641,30.176 83.717,30.038 83.737,29.829C83.737,29.619 83.594,29.467 83.308,29.372C83.308,29.353 83.299,29.343 83.28,29.343C82.842,29.21 82.404,29.144 81.966,29.144L81.367,29.144C80.111,29.144 78.721,29.334 77.199,29.714L76.999,29.743C76.866,29.743 76.78,29.648 76.742,29.458C76.666,29.077 76.628,28.715 76.628,28.373L76.571,27.602C76.456,26.498 76.399,25.385 76.399,24.262C76.456,21.959 76.494,20.674 76.514,20.407C76.533,20.141 76.552,19.874 76.571,19.608C76.609,19.208 76.799,19.008 77.142,19.008L77.484,19.037C78.702,19.208 79.93,19.342 81.167,19.437C81.852,19.475 82.566,19.532 83.308,19.608C83.594,19.608 83.846,19.556 84.065,19.451C84.284,19.346 84.393,19.208 84.393,19.037C84.393,18.923 84.307,18.804 84.136,18.68C83.965,18.556 83.775,18.495 83.565,18.495L79.683,18.009C78.312,17.819 76.932,17.724 75.543,17.724L74.487,17.752C73.63,17.809 73.126,18.228 72.973,19.008C72.878,19.579 72.831,20.169 72.831,20.779C72.831,23.329 72.85,24.932 72.888,25.589C72.926,26.246 73.059,27.773 73.287,30.171C72.907,30.019 72.574,29.943 72.288,29.943C71.755,29.962 71.489,30.143 71.489,30.485C71.489,30.733 71.627,30.971 71.903,31.199C72.179,31.427 72.498,31.561 72.859,31.599C73.126,31.618 73.306,31.703 73.402,31.856C73.497,32.008 73.554,32.208 73.573,32.455L73.601,32.598C73.716,33.493 73.877,34.382 74.087,35.267C74.296,36.152 74.61,36.895 75.029,37.494C75.448,38.094 76.057,38.393 76.856,38.393Z" style="fill:rgb(248,248,248);"/>
        </g>
        <g transform="matrix(1,0,0,1,-4.60153,0)">
            <path d="M91.074,41.134L91.359,41.106C92.577,40.896 93.657,40.492 94.6,39.892C95.542,39.293 96.27,38.393 96.784,37.194C97.374,35.539 97.678,33.854 97.697,32.141L97.84,30.257C97.973,28.963 98.04,27.678 98.04,26.403C98.059,25.546 98.116,24.794 98.211,24.147L98.354,22.663C98.354,22.225 98.149,21.916 97.74,21.735C97.331,21.554 96.888,21.464 96.412,21.464L95.613,21.521C95.251,21.521 94.909,21.416 94.585,21.207C93.5,20.484 92.358,20.103 91.159,20.065C88.533,20.065 86.62,21.302 85.421,23.776C85.135,24.366 84.993,24.928 84.993,25.461C84.993,26.393 85.369,27.14 86.12,27.702C86.872,28.263 87.752,28.544 88.761,28.544C89.808,28.544 90.855,28.316 91.902,27.859C92.948,27.402 93.872,26.774 94.671,25.975C94.671,26.793 94.68,27.516 94.699,28.144C94.699,28.335 94.661,28.487 94.585,28.601C94.509,28.715 94.376,28.82 94.186,28.915C91.921,29.867 90.084,31.361 88.676,33.397C87.895,34.558 87.505,35.691 87.505,36.795C87.505,37.232 87.572,37.68 87.705,38.137C87.914,38.803 88.362,39.469 89.047,40.135C89.732,40.801 90.408,41.134 91.074,41.134ZM91.045,39.45C90.798,39.45 90.579,39.307 90.389,39.022C89.875,38.317 89.618,37.604 89.618,36.88C89.618,35.757 89.998,34.687 90.76,33.669C91.521,32.65 92.396,31.78 93.386,31.056L94.699,30.143L94.671,30.856C94.652,32.569 94.466,34.168 94.114,35.653C93.762,37.137 92.92,38.336 91.588,39.25C91.378,39.383 91.197,39.45 91.045,39.45ZM89.161,27.316C88.266,27.316 87.819,26.603 87.819,25.175L87.819,25.09C87.952,23.871 88.952,22.682 90.817,21.521C91.064,21.369 91.302,21.292 91.53,21.292C91.949,21.292 92.615,21.597 93.529,22.206C93.929,22.434 94.171,22.577 94.257,22.634C94.343,22.691 94.385,22.767 94.385,22.863C94.385,23.015 94.29,23.253 94.1,23.576L93.957,23.862C93.443,24.871 92.725,25.699 91.802,26.346C90.879,26.993 89.998,27.316 89.161,27.316Z" style="fill:rgb(248,248,248);"/>
        </g>
        <g transform="matrix(1,0,0,1,-4.60153,0)">
            <path d="M107.233,39.364C107.937,39.364 108.655,39.25 109.388,39.022C110.121,38.793 110.725,38.393 111.201,37.823C111.334,37.651 111.401,37.499 111.401,37.366C111.401,37.175 111.277,37.028 111.03,36.923C110.782,36.819 110.525,36.766 110.259,36.766C109.916,36.766 109.602,36.909 109.317,37.194C108.841,37.765 108.289,38.051 107.661,38.051C105.567,38.013 104.416,36.937 104.206,34.825C104.206,34.577 104.302,34.454 104.492,34.454C104.663,34.454 104.911,34.482 105.234,34.539C105.634,34.635 106.138,34.682 106.747,34.682C107.775,34.682 108.76,34.501 109.702,34.14C110.644,33.778 111.41,33.188 112,32.37C112.362,31.856 112.543,31.37 112.543,30.914C112.543,30.19 112.096,29.581 111.201,29.086C110.459,28.687 109.498,28.487 108.318,28.487C106.852,28.487 105.591,28.81 104.535,29.458C103.478,30.105 102.712,31.037 102.236,32.255L102.179,32.398C102.027,32.684 101.846,32.883 101.637,32.998C101.504,33.036 101.437,33.121 101.437,33.255C101.437,33.312 101.466,33.369 101.523,33.426C101.675,33.597 101.751,33.778 101.751,33.968L101.751,34.482C101.751,35.986 102.303,37.175 103.407,38.051C104.511,38.926 105.786,39.364 107.233,39.364ZM105.834,33.512C105.624,33.512 105.425,33.488 105.234,33.44C105.044,33.393 104.844,33.364 104.635,33.355C104.425,33.345 104.321,33.236 104.321,33.026C104.511,31.922 105.068,31.094 105.991,30.542C106.914,29.99 107.899,29.714 108.946,29.714C109.44,29.734 109.821,29.819 110.088,29.971C110.354,30.124 110.487,30.39 110.487,30.771C110.487,31.475 110.059,32.103 109.203,32.655C108.346,33.207 107.404,33.483 106.376,33.483L105.834,33.512Z" style="fill:rgb(248,248,248);"/>
        </g>
        <g transform="matrix(1,0,0,1,-4.60153,0)">
            <path d="M120.508,39.393C121.326,39.393 121.917,38.917 122.278,37.965C122.982,36.195 123.601,34.387 124.134,32.541C124.457,31.437 124.81,30.343 125.19,29.258L125.219,29.058C125.219,28.848 125.1,28.691 124.862,28.587C124.624,28.482 124.41,28.43 124.219,28.43C123.763,28.43 123.411,28.668 123.163,29.144C122.192,31.732 121.374,34.102 120.708,36.252C120.08,34.197 119.585,32.151 119.223,30.114C118.976,28.877 118.852,28.197 118.852,28.073C118.852,27.949 118.843,27.821 118.824,27.687C118.767,27.478 118.424,27.24 117.796,26.974C117.491,26.86 117.149,26.802 116.768,26.802C116.311,26.802 116.083,27.05 116.083,27.545C116.083,27.659 116.14,28.192 116.254,29.144C116.406,30.666 116.621,32.151 116.897,33.597C117.173,35.044 117.653,36.509 118.338,37.994C118.719,38.85 119.442,39.317 120.508,39.393Z" style="fill:rgb(248,248,248);"/>
        </g>
        <g transform="matrix(1,0,0,1,-4.60153,0)">
            <path d="M140.578,39.478C141.13,39.478 141.616,39.269 142.034,38.85C142.072,38.812 142.101,38.755 142.12,38.679C142.196,38.355 142.253,37.175 142.291,35.139C142.291,32.627 142.168,30.133 141.92,27.659C141.863,26.821 141.425,26.365 140.607,26.289C140.074,26.231 139.55,26.203 139.037,26.203C138.656,26.203 138.447,26.298 138.409,26.488C138.351,26.831 138.152,27.002 137.809,27.002L137.01,27.002C133.546,27.002 130.881,28.487 129.016,31.456C128.559,32.198 128.331,32.95 128.331,33.711C128.331,34.435 128.578,35.158 129.073,35.881C129.568,36.604 130.291,37.175 131.243,37.594C132.194,38.013 133.165,38.222 134.155,38.222C136.229,38.222 137.676,37.309 138.494,35.481L138.922,38.251C139.094,39.069 139.646,39.478 140.578,39.478ZM134.954,36.652C134.65,36.652 134.278,36.462 133.841,36.081C132.832,35.225 132.328,34.292 132.328,33.283C132.328,32.541 132.399,31.927 132.542,31.442C132.684,30.956 132.946,30.514 133.327,30.114C134.488,28.877 135.934,28.249 137.666,28.23C138.028,28.23 138.209,28.373 138.209,28.658L138.209,28.687C138.018,30.247 137.695,31.742 137.238,33.169C136.972,34.044 136.638,34.844 136.239,35.567C135.839,36.29 135.411,36.652 134.954,36.652Z" style="fill:rgb(248,248,248);"/>
        </g>
        <g transform="matrix(1,0,0,1,-4.60153,0)">
            <path d="M152.74,39.336C153.73,39.336 154.677,39.145 155.581,38.765C156.485,38.384 157.232,37.823 157.822,37.08C157.822,37.061 157.827,37.042 157.836,37.023C157.846,37.004 157.865,36.985 157.893,36.966C157.922,36.947 157.955,36.937 157.993,36.937L158.108,36.966L158.564,38.279C158.812,38.736 159.192,38.964 159.706,38.964C160.658,38.869 161.134,38.508 161.134,37.88C161.077,37.232 161.001,36.576 160.905,35.91C160.639,33.854 160.506,32.141 160.506,30.771C160.506,29.343 160.572,27.916 160.706,26.488C160.915,24.185 161.143,22.301 161.391,20.836L161.419,20.636C161.419,20.179 161.162,19.894 160.648,19.779C160.135,19.665 159.564,19.599 158.936,19.579L158.507,19.551C158.089,19.551 157.855,19.77 157.808,20.208C157.76,20.645 157.708,21.083 157.651,21.521C157.251,24.814 157.051,27.421 157.051,29.343C156.347,28.868 155.69,28.515 155.081,28.287C154.472,28.059 153.749,27.944 152.912,27.944C151.903,27.944 150.937,28.163 150.014,28.601C149.091,29.039 148.296,29.695 147.63,30.571C146.831,31.675 146.431,32.798 146.431,33.94C146.431,35.329 147.021,36.585 148.201,37.708C149.457,38.793 150.97,39.336 152.74,39.336ZM153.14,37.965C152.893,37.965 152.645,37.889 152.398,37.737C152.055,37.508 151.693,37.309 151.313,37.137C150.456,36.757 149.909,36.29 149.671,35.738C149.433,35.186 149.314,34.52 149.314,33.74C149.314,33.245 149.543,32.665 150,31.998C151.084,30.324 152.36,29.486 153.825,29.486C154.529,29.486 155.11,29.705 155.567,30.143C156.023,30.58 156.271,31.199 156.309,31.998C156.309,32.322 156.28,32.555 156.223,32.698C156.166,32.841 156.138,32.96 156.138,33.055C156.138,33.207 156.2,33.316 156.323,33.383C156.447,33.45 156.642,33.502 156.909,33.54C157.175,33.578 157.308,33.664 157.308,33.797C157.308,33.854 157.289,33.921 157.251,33.997C156.909,34.758 156.504,35.477 156.038,36.152C155.571,36.828 154.92,37.356 154.082,37.737C153.759,37.889 153.445,37.965 153.14,37.965Z" style="fill:rgb(248,248,248);"/>
        </g>
    </g>
    <g transform="matrix(7.78775,0,0,7.89487,-44.9663,-82.347)">
        <path d="M8.874,17.968C9.992,17.916 11.316,17.351 12.096,16.528C12.157,16.459 12.131,16.472 12.018,16.407C11.906,16.342 11.78,16.31 11.641,16.31C11.52,16.31 11.407,16.353 11.303,16.44C10.957,16.7 10.303,17.104 9.935,17.291C9.673,17.425 9.453,17.545 9.095,17.564C8.252,17.609 7.872,17.492 7.586,17.187C7.284,16.866 7.163,16.497 7.059,16.112C6.942,15.676 6.884,14.965 6.884,14.575C6.884,14.081 6.97,13.574 7.144,13.054C7.317,12.534 7.48,12.252 7.911,11.861C8.341,11.47 9.022,11.195 9.524,11.195C9.845,11.195 10.519,11.294 10.796,11.494C11.256,11.806 11.485,12.421 11.485,13.34C11.485,13.721 11.38,14.217 11.303,14.458C11.261,14.593 11.144,14.781 11.028,14.781C10.911,14.781 10.686,14.615 10.603,14.458C10.515,14.291 10.499,13.998 10.499,13.782L10.499,13.07C10.499,12.987 10.473,12.916 10.43,12.859C10.393,12.81 10.345,12.772 10.291,12.745C10.116,12.656 9.715,12.537 9.446,12.537C9.013,12.537 8.632,12.702 8.302,13.031C7.973,13.361 7.799,14.073 7.799,14.498C7.799,14.775 7.899,15.305 8.081,15.491C8.263,15.677 8.497,15.771 8.783,15.771C9,15.753 9.189,15.712 9.349,15.647C9.509,15.582 9.654,15.459 9.784,15.277C9.828,15.199 9.884,15.16 9.953,15.16C9.997,15.16 10.049,15.177 10.109,15.212C10.309,15.324 10.521,15.381 10.746,15.381C10.972,15.381 11.188,15.32 11.396,15.199C11.856,14.921 12.085,14.336 12.085,13.444L12.085,12.885C12.085,12.347 11.936,11.888 11.637,11.507C11.338,11.125 10.924,10.865 10.395,10.727C10.066,10.64 9.75,10.597 9.446,10.597C8.77,10.597 8.164,10.781 7.626,11.149C7.089,11.517 6.664,11.994 6.352,12.579C6.04,13.164 5.884,13.782 5.884,14.432C5.884,14.891 5.949,15.363 6.079,15.849C6.261,16.525 6.582,17.047 7.041,17.415C7.501,17.783 8.068,17.968 8.744,17.968L8.874,17.968ZM8.843,15.154C8.496,14.874 8.562,13.356 9.36,13.196C9.81,13.105 9.606,14.285 9.52,14.611C9.446,14.891 9.008,15.287 8.843,15.154Z" style="fill:rgb(248,248,248);fill-rule:nonzero;"/>
    </g>
</svg>
