<?xml version="1.0" encoding="UTF-8" standalone="no"?>
<!DOCTYPE svg PUBLIC "-//W3C//DTD SVG 1.1//EN" "http://www.w3.org/Graphics/SVG/1.1/DTD/svg11.dtd">
<svg width="100%" height="100%" viewBox="0 0 300 350" version="1.1" xmlns="http://www.w3.org/2000/svg" xmlnsXlink="http://www.w3.org/1999/xlink" xmlSpace="preserve" xmlnsSerif="http://www.serif.com/" style="fill-rule:evenodd;clip-rule:evenodd;stroke-linejoin:round;stroke-miterlimit:2;">
    <g transform="matrix(46.4912,0,0,47.1307,-270.582,-498.385)">
        <path d="M8.874,17.968C9.992,17.916 11.316,17.351 12.096,16.528C12.157,16.459 12.131,16.472 12.018,16.407C11.906,16.342 11.78,16.31 11.641,16.31C11.52,16.31 11.407,16.353 11.303,16.44C10.957,16.7 10.303,17.104 9.935,17.291C9.673,17.425 9.453,17.545 9.095,17.564C8.252,17.609 7.872,17.492 7.586,17.187C7.284,16.866 7.163,16.497 7.059,16.112C6.942,15.676 6.884,14.965 6.884,14.575C6.884,14.081 6.97,13.574 7.144,13.054C7.317,12.534 7.48,12.252 7.911,11.861C8.341,11.47 9.022,11.195 9.524,11.195C9.845,11.195 10.519,11.294 10.796,11.494C11.256,11.806 11.485,12.421 11.485,13.34C11.485,13.721 11.38,14.217 11.303,14.458C11.261,14.593 11.144,14.781 11.028,14.781C10.911,14.781 10.686,14.615 10.603,14.458C10.515,14.291 10.499,13.998 10.499,13.782L10.499,13.07C10.499,12.987 10.473,12.916 10.43,12.859C10.393,12.81 10.345,12.772 10.291,12.745C10.116,12.656 9.715,12.537 9.446,12.537C9.013,12.537 8.632,12.702 8.302,13.031C7.973,13.361 7.799,14.073 7.799,14.498C7.799,14.775 7.899,15.305 8.081,15.491C8.263,15.677 8.497,15.771 8.783,15.771C9,15.753 9.189,15.712 9.349,15.647C9.509,15.582 9.654,15.459 9.784,15.277C9.828,15.199 9.884,15.16 9.953,15.16C9.997,15.16 10.049,15.177 10.109,15.212C10.309,15.324 10.521,15.381 10.746,15.381C10.972,15.381 11.188,15.32 11.396,15.199C11.856,14.921 12.085,14.336 12.085,13.444L12.085,12.885C12.085,12.347 11.936,11.888 11.637,11.507C11.338,11.125 10.924,10.865 10.395,10.727C10.066,10.64 9.75,10.597 9.446,10.597C8.77,10.597 8.164,10.781 7.626,11.149C7.089,11.517 6.664,11.994 6.352,12.579C6.04,13.164 5.884,13.782 5.884,14.432C5.884,14.891 5.949,15.363 6.079,15.849C6.261,16.525 6.582,17.047 7.041,17.415C7.501,17.783 8.068,17.968 8.744,17.968L8.874,17.968ZM8.843,15.154C8.496,14.874 8.562,13.356 9.36,13.196C9.81,13.105 9.606,14.285 9.52,14.611C9.446,14.891 9.008,15.287 8.843,15.154Z" style="fill:rgb(248,248,248);fill-rule:nonzero;"/>
    </g>
</svg>
