<?xml version="1.0" encoding="UTF-8" standalone="no"?><!DOCTYPE svg PUBLIC "-//W3C//DTD SVG 1.1//EN" "http://www.w3.org/Graphics/SVG/1.1/DTD/svg11.dtd"><svg width="100%" height="100%" viewBox="0 0 270 325" version="1.1" xmlns="http://www.w3.org/2000/svg" xmlnsXlink="http://www.w3.org/1999/xlink" xmlSpace="preserve" xmlnsSerif="http://www.serif.com/" style="fill-rule:evenodd;clip-rule:evenodd;stroke-linejoin:round;stroke-miterlimit:2;"><path d="M130.308,322.671c47.935,-2.26 104.705,-26.789 138.148,-62.576c2.601,-3.013 1.486,-2.412 -3.344,-5.238c-4.831,-2.825 -10.219,-4.238 -16.165,-4.238c-5.202,0 -10.033,1.884 -14.492,5.651c-14.863,11.301 -42.872,28.859 -58.655,37.003c-11.258,5.81 -20.702,11.034 -36.045,11.867c-36.115,1.959 -52.435,-3.151 -64.703,-16.387c-12.933,-13.954 -18.133,-29.997 -22.574,-46.754c-5.017,-18.927 -7.525,-49.855 -7.525,-66.807c0,-21.472 3.716,-43.509 11.148,-66.111c7.432,-22.602 14.404,-34.832 32.886,-51.847c18.463,-16.999 47.638,-28.956 69.19,-28.956c13.749,0 42.649,4.332 54.54,12.996c19.695,13.562 29.542,40.308 29.542,80.238c-0,16.575 -4.532,38.154 -7.804,48.595c-1.838,5.867 -6.822,14.048 -11.824,14.048c-5.003,-0 -14.628,-7.217 -18.191,-14.048c-3.775,-7.239 -4.459,-19.966 -4.459,-29.383l-0,-30.918c-0,-3.638 -1.151,-6.712 -2.977,-9.169c-1.578,-2.124 -3.661,-3.787 -5.941,-4.958c-7.525,-3.861 -24.711,-9.04 -36.23,-9.04c-18.58,-0 -34.93,7.157 -49.05,21.472c-14.121,14.314 -21.596,45.281 -21.596,63.74c-0,12.054 4.317,35.078 12.12,43.177c7.803,8.1 17.836,12.149 30.099,12.149c9.29,-0.753 17.372,-2.543 24.246,-5.368c6.875,-2.825 13.099,-8.193 18.673,-16.104c1.858,-3.39 4.273,-5.085 7.246,-5.085c1.858,-0 4.087,0.753 6.688,2.26c8.547,4.897 17.651,7.345 27.312,7.345c9.662,0 18.951,-2.636 27.87,-7.91c19.694,-12.055 29.541,-37.482 29.541,-76.282l0,-24.298c0,-23.355 -6.41,-43.321 -19.23,-59.895c-12.82,-16.575 -30.563,-27.876 -53.23,-33.904c-14.121,-3.767 -27.684,-5.65 -40.689,-5.65c-28.984,-0 -54.996,8.005 -78.034,24.015c-23.039,16.009 -41.247,36.728 -54.624,62.155c-13.378,25.428 -20.066,52.268 -20.066,80.521c-0,19.965 2.787,40.495 8.361,61.59c7.803,29.383 21.552,52.08 41.246,68.089c19.694,16.01 44.034,24.015 73.018,24.015l5.574,0Zm-1.364,-122.311c-14.854,-12.148 -12.038,-78.138 22.181,-85.107c19.314,-3.934 10.543,47.342 6.846,61.527c-3.167,12.152 -21.914,29.398 -29.027,23.58Z" style="fill:#f8f8f8;fill-rule:nonzero;"/></svg>