<?xml version="1.0" encoding="UTF-8" standalone="no"?>
<!DOCTYPE svg PUBLIC "-//W3C//DTD SVG 1.1//EN" "http://www.w3.org/Graphics/SVG/1.1/DTD/svg11.dtd">
<svg width="100%" height="100%" viewBox="0 0 400 15" version="1.1" xmlns="http://www.w3.org/2000/svg" xmlns:xlink="http://www.w3.org/1999/xlink" xml:space="preserve" xmlns:serif="http://www.serif.com/" style="fill-rule:evenodd;clip-rule:evenodd;stroke-linejoin:round;stroke-miterlimit:2;">
    <g transform="matrix(1.82483,0,0,2.07161,-10.4344,-9.80191)">
        <path d="M222.441,6.665C162.804,12.434 138.842,8.984 123.915,8.631C77.088,7.523 67.459,9.082 33.357,9.961C24.389,10.192 17.536,10.253 17.198,10.248C16.664,10.239 6.679,9.87 6.669,9.861C6.477,9.692 6.286,9.523 6.094,9.354C6.351,9.279 6.412,8.922 6.669,8.847C6.686,8.842 10.108,8.719 17.024,8.397C19.147,8.298 32.899,8.504 52.628,7.742C72.677,6.968 86.319,5.974 123.97,6.789C131.903,6.961 143.072,8.105 164.488,8.331C187.653,8.575 207.064,7.575 222.441,6.665Z" style="fill:rgb(248,248,248);"/>
    </g>
</svg>
